<svg width="14" height="14" fill="none" xmlns="http://www.w3.org/2000/svg"><path d="M7 .5A6.508 6.508 0 00.5 7c0 3.584 2.916 6.5 6.5 6.5s6.5-2.916 6.5-6.5S10.584.5 7 .5zm0 1c3.043 0 5.5 2.457 5.5 5.5s-2.457 5.5-5.5 5.5A5.493 5.493 0 011.5 7c0-3.043 2.457-5.5 5.5-5.5zM6.953 4c-1.662 0-3 1.338-3 3s1.338 3 3 3c1.2 0 2.225-.719 2.703-1.735l-.906-.421A1.979 1.979 0 016.953 9c-1.139 0-2-.861-2-2 0-1.138.861-2 2-2 .801 0 1.475.47 1.797 1.157l.906-.423C9.178 4.72 8.152 4 6.952 4h.001z" fill="#fff"/></svg>