<svg width="123" height="36" fill="none" xmlns="http://www.w3.org/2000/svg"><path d="M27.708.424V28h-5.22V15.364l-8.64 12.276h-.072L5.46 16.156V28H.42V.424h.036l13.428 19.044L27.636.424h.072zm11.78 11.844V28h-5.04V12.268h5.04zm-5.147-5.58c0-.72.276-1.32.828-1.8.576-.504 1.224-.756 1.944-.756.696 0 1.32.252 1.872.756.552.48.828 1.08.828 1.8s-.276 1.32-.828 1.8c-.552.48-1.176.72-1.872.72-.72 0-1.368-.24-1.944-.72-.552-.48-.828-1.08-.828-1.8z" fill="#F78CB6"/><path d="M50.331 15.868a7.94 7.94 0 011.764-2.268c.768-.672 1.548-1.188 2.34-1.548.792-.384 1.416-.576 1.872-.576l-.252 5.04a3.962 3.962 0 00-.612-.036c-1.008 0-1.896.264-2.664.792a5.213 5.213 0 00-1.764 2.052 5.572 5.572 0 00-.612 2.52V28H45.4V12.268h4.536l.396 3.6zm26.947-3.6V28h-5.04v-1.944c-1.513 1.584-3.264 2.376-5.257 2.376-2.328 0-4.223-.696-5.687-2.088-1.44-1.392-2.16-3.456-2.16-6.192 0-1.728.347-3.24 1.044-4.536.72-1.32 1.668-2.34 2.844-3.06a7.114 7.114 0 013.78-1.08c1.391 0 2.495.216 3.311.648.817.408 1.537.996 2.16 1.764l.325-1.62h4.68zm-8.857 12.06c1.752 0 3.024-.792 3.816-2.376V18.1c-.287-.768-.791-1.38-1.511-1.836-.697-.456-1.525-.684-2.484-.684-1.105 0-2.053.408-2.845 1.224-.768.816-1.151 1.848-1.151 3.096 0 .816.192 1.572.576 2.268a4.36 4.36 0 001.511 1.584 4.026 4.026 0 002.088.576zm32.374-12.06V28a6.734 6.734 0 01-1.296 4.032c-.84 1.224-1.992 2.172-3.456 2.844-1.44.696-3.012 1.044-4.716 1.044-1.296 0-2.436-.156-3.42-.468-.96-.312-1.74-.66-2.34-1.044-.576-.384-1.272-.912-2.088-1.584l2.952-3.456c.72.672 1.428 1.2 2.124 1.584.72.384 1.62.576 2.7.576 1.272 0 2.34-.324 3.204-.972.864-.624 1.296-1.5 1.296-2.628v-2.232c-.48.816-1.224 1.476-2.232 1.98-.984.504-2.196.756-3.636.756a7.676 7.676 0 01-3.96-1.08c-1.2-.744-2.16-1.752-2.88-3.024-.72-1.296-1.08-2.724-1.08-4.284 0-1.584.372-3.036 1.116-4.356.768-1.32 1.764-2.352 2.988-3.096 1.248-.744 2.556-1.116 3.924-1.116 1.296 0 2.448.192 3.456.576 1.008.36 1.776.84 2.304 1.44l.396-1.224h4.644zm-9.396 12.06c2.016 0 3.468-.792 4.356-2.376V18.1c-.336-.768-.9-1.38-1.692-1.836-.768-.456-1.656-.684-2.664-.684-1.224 0-2.256.408-3.096 1.224-.84.816-1.26 1.848-1.26 3.096s.42 2.304 1.26 3.168c.84.84 1.872 1.26 3.096 1.26zm23.141-.18c1.008 0 2.052-.348 3.132-1.044l2.232 3.744c-.864.48-1.776.864-2.736 1.152-.96.288-1.872.432-2.736.432-1.872 0-3.492-.348-4.86-1.044-1.344-.72-2.364-1.716-3.06-2.988-.696-1.296-1.044-2.772-1.044-4.428 0-1.536.396-2.952 1.188-4.248.816-1.296 1.92-2.316 3.312-3.06 1.392-.768 2.916-1.152 4.572-1.152 2.256 0 4.104.66 5.544 1.98 1.464 1.32 2.412 3.204 2.844 5.652l-11.52 3.672c.768.888 1.812 1.332 3.132 1.332zm-.396-8.712c-1.128 0-2.028.384-2.7 1.152-.672.768-1.008 1.8-1.008 3.096v.324l6.912-2.34c-.504-1.488-1.572-2.232-3.204-2.232z" fill="#56597A"/></svg>